<?xml version="1.0" standalone="no"?>
<!DOCTYPE svg PUBLIC "-//W3C//DTD SVG 20010904//EN"
 "http://www.w3.org/TR/2001/REC-SVG-20010904/DTD/svg10.dtd">
<svg version="1.0" xmlns="http://www.w3.org/2000/svg"
 width="225.000000pt" height="225.000000pt" viewBox="0 0 225.000000 225.000000"
 preserveAspectRatio="xMidYMid meet">

<g transform="translate(0.000000,225.000000) scale(0.100000,-0.100000)"
fill="#000000" stroke="none">
<path d="M830 1545 l0 -105 25 0 25 0 0 105 0 105 -25 0 -25 0 0 -105z"/>
<path d="M1010 1610 c0 -29 4 -40 15 -40 11 0 15 11 15 40 0 29 -4 40 -15 40
-11 0 -15 -11 -15 -40z"/>
<path d="M910 1551 c0 -87 12 -111 56 -111 30 0 34 35 4 43 -15 4 -20 14 -20
36 0 24 4 31 20 31 13 0 20 7 20 20 0 13 -7 20 -20 20 -13 0 -20 7 -20 20 0
13 -7 20 -20 20 -18 0 -20 -7 -20 -79z"/>
<path d="M612 1553 c-266 -457 -352 -605 -352 -609 0 -2 33 -4 73 -4 71 0 74
1 195 71 67 39 122 77 122 85 0 21 -59 18 -111 -5 -24 -11 -45 -19 -46 -17 -4
4 151 275 157 276 3 0 39 -60 81 -133 l77 -132 77 -3 c60 -2 76 0 72 10 -2 7
-72 129 -155 271 l-150 259 -40 -69z"/>
<path d="M1088 1579 c-10 -5 -18 -18 -18 -28 0 -20 30 -51 48 -51 7 0 12 -4
12 -10 0 -5 -13 -10 -30 -10 -24 0 -30 -4 -30 -21 0 -18 5 -20 46 -17 73 5 88
55 26 83 -29 13 -28 25 3 25 18 0 25 5 25 20 0 16 -7 20 -32 20 -18 0 -41 -5
-50 -11z"/>
<path d="M1015 1275 c-23 -22 -25 -32 -25 -110 0 -84 0 -85 25 -85 25 0 25 1
25 80 0 64 3 82 16 87 26 10 39 -14 15 -29 -28 -17 -27 -46 2 -50 12 -2 22
-10 22 -18 0 -8 -10 -16 -22 -18 -17 -3 -23 -10 -23 -28 0 -20 5 -24 30 -24
57 0 90 62 53 102 -13 14 -14 21 -5 30 19 19 14 45 -14 67 -35 28 -69 26 -99
-4z"/>
<path d="M1170 1185 l0 -105 30 0 c29 0 30 2 30 45 0 41 2 45 25 45 23 0 25
-4 25 -45 0 -42 2 -45 28 -45 l27 0 -3 105 c-3 104 -4 105 -28 105 -21 0 -24
-5 -24 -35 0 -31 -3 -35 -25 -35 -22 0 -25 4 -25 35 0 32 -2 35 -30 35 l-30 0
0 -105z"/>
<path d="M1370 1185 l0 -105 25 0 25 0 0 105 0 105 -25 0 -25 0 0 -105z"/>
<path d="M1466 1274 c-28 -27 -19 -60 24 -95 22 -18 40 -36 40 -41 0 -4 -18
-8 -40 -8 -36 0 -40 -2 -40 -25 0 -23 3 -25 48 -25 57 0 92 21 92 56 0 24 -10
35 -70 83 l-25 20 43 1 c38 0 42 2 42 25 0 23 -3 25 -49 25 -32 0 -55 -6 -65
-16z"/>
<path d="M1620 1185 l0 -105 25 0 c23 0 25 4 25 45 0 43 1 45 30 45 29 0 30
-2 30 -45 0 -41 2 -45 25 -45 l25 0 0 105 0 105 -25 0 c-22 0 -25 -4 -25 -35
0 -32 -2 -35 -30 -35 -28 0 -30 3 -30 35 0 31 -3 35 -25 35 l-25 0 0 -105z"/>
<path d="M1864 1280 c-73 -29 -72 -150 1 -185 50 -23 75 -20 75 10 0 21 -5 25
-29 25 -29 0 -57 21 -44 33 3 4 21 7 40 7 26 0 33 4 33 20 0 17 -7 20 -41 20
-35 0 -40 2 -30 14 7 8 26 18 42 21 40 9 41 45 2 44 -16 0 -38 -4 -49 -9z"/>
<path d="M1980 1185 l0 -105 25 0 c23 0 25 4 25 45 0 37 3 45 19 45 21 0 31
-19 31 -61 0 -24 4 -29 25 -29 23 0 25 4 25 47 0 28 -6 53 -16 64 -14 15 -13
20 5 50 27 44 26 49 -7 49 -22 0 -32 -7 -45 -35 -9 -19 -21 -35 -27 -35 -5 0
-10 16 -10 35 0 31 -3 35 -25 35 l-25 0 0 -105z"/>
<path d="M627 1200 l-18 -30 41 0 41 0 -16 30 c-9 17 -19 30 -23 30 -4 0 -16
-13 -25 -30z"/>
</g>
</svg>
